<?xml version="1.0" standalone="no"?>
<!DOCTYPE svg PUBLIC "-//W3C//DTD SVG 20010904//EN"
 "http://www.w3.org/TR/2001/REC-SVG-20010904/DTD/svg10.dtd">
<svg version="1.0" xmlns="http://www.w3.org/2000/svg"
 width="620.000000pt" height="402.000000pt" viewBox="0 0 620.000000 402.000000"
 preserveAspectRatio="xMidYMid meet">

<g transform="translate(0.000000,402.000000) scale(0.100000,-0.100000)"
fill="#000000" stroke="none">
<path d="M2895 3435 c-303 -56 -533 -180 -763 -413 -180 -183 -311 -422 -367
-672 -23 -101 -31 -387 -15 -500 44 -310 177 -569 406 -791 236 -228 448 -338
752 -390 107 -18 151 -20 282 -16 286 11 498 79 736 239 158 105 403 360 371
386 -6 5 -110 41 -230 80 l-219 70 -81 -74 c-95 -86 -252 -170 -382 -205 -114
-31 -344 -38 -451 -14 -302 67 -566 297 -674 587 -54 147 -69 383 -34 538 35
158 117 310 233 433 118 125 261 211 436 262 79 24 108 27 240 27 120 1 166
-3 232 -20 141 -36 257 -97 374 -197 29 -25 56 -45 60 -45 3 0 80 72 170 160
l164 160 -65 61 c-146 137 -379 261 -590 313 -145 37 -444 47 -585 21z m440
-80 c192 -30 317 -76 495 -183 94 -56 170 -113 170 -127 0 -6 -45 -55 -100
-110 l-99 -99 -73 51 c-197 137 -389 191 -643 180 -252 -10 -471 -103 -648
-276 -211 -204 -317 -450 -317 -733 0 -295 107 -549 311 -743 136 -129 308
-222 481 -260 103 -23 301 -31 395 -15 161 26 353 111 472 210 37 30 74 61 82
68 14 10 41 4 158 -33 86 -28 141 -51 141 -59 0 -21 -209 -218 -285 -268 -146
-95 -333 -173 -494 -202 -111 -21 -369 -21 -487 -1 -253 45 -477 165 -683 367
-179 177 -293 370 -351 597 -44 173 -46 468 -5 647 101 434 478 828 915 956
159 46 394 60 565 33z"/>
<path d="M3150 2282 c-6 -2 -10 -89 -10 -233 l0 -229 353 0 352 0 225 225
c124 123 223 227 220 230 -5 6 -1123 12 -1140 7z m928 -90 c9 -6 -29 -50 -130
-150 l-143 -142 -285 3 -285 2 -3 139 c-2 105 1 141 10 148 17 10 819 10 836
0z"/>
</g>
</svg>
